<?xml version="1.0" encoding="UTF-8"?>
<!DOCTYPE svg PUBLIC "-//W3C//DTD SVG 1.1//EN" "http://www.w3.org/Graphics/SVG/1.1/DTD/svg11.dtd">
<!-- Creator: CorelDRAW -->
<svg xmlns="http://www.w3.org/2000/svg" xml:space="preserve" width="5.69138in" height="5.71408in" version="1.1" style="shape-rendering:geometricPrecision; text-rendering:geometricPrecision; image-rendering:optimizeQuality; fill-rule:evenodd; clip-rule:evenodd"
viewBox="0 0 5691 5714"
 xmlns:xlink="http://www.w3.org/1999/xlink">
 <defs>
  <style type="text/css">
   <![CDATA[
    .fil3 {fill:black}
    .fil0 {fill:blue}
    .fil1 {fill:#FFE01F}
    .fil2 {fill:#373435;fill-rule:nonzero}
   ]]>
  </style>
 </defs>
 <g id="Layer_x0020_1">
  <metadata id="CorelCorpID_0Corel-Layer"/>
  <g id="UDINUS_x0020__x005b_KoleksiLogo.com_x005d_.cdr">
   <path class="fil0" d="M1513 1574l1966 0c404,8 811,-12 793,826l0 1226 -655 0 0 -1259c0,-72 -59,-131 -131,-131l-1973 0 0 -662zm-7 826l669 0 0 1226 -669 0 0 -1226z"/>
   <circle class="fil1" cx="2883" cy="3052" r="567"/>
   <path class="fil2" d="M390 4285l-93 -186 9 -5 5 10c7,14 13,23 18,26 6,4 12,6 18,6 6,-1 19,-6 39,-16l172 -86c31,-15 51,-28 58,-38 8,-10 12,-22 14,-37 1,-14 -3,-30 -11,-47 -10,-19 -23,-34 -38,-43 -15,-10 -32,-14 -51,-13 -18,0 -46,10 -83,29l-143 71c-16,8 -26,15 -31,22 -5,7 -8,13 -8,20 0,10 4,22 11,37l-9 4 -62 -124 9 -5 4 7c5,11 11,18 18,23 7,4 16,6 25,5 7,0 18,-4 32,-11l133 -67c41,-20 72,-32 93,-36 21,-4 45,2 71,15 26,14 49,40 67,77 16,31 24,57 24,78 1,29 -5,53 -18,71 -12,18 -33,34 -62,49l-172 86c-20,10 -32,17 -36,22 -3,5 -5,11 -6,18 0,7 4,18 12,33l-9 5zm-257 -597l180 -257 -162 46c-23,6 -37,14 -43,23 -9,12 -10,29 -3,50l-10 3 -36 -128 10 -3c7,16 12,26 17,31 5,5 12,7 20,9 8,1 21,-1 39,-6l314 -88 3 9 -241 350 241 -67c21,-6 35,-15 40,-28 4,-12 5,-25 1,-38l-2 -9 9 -3 39 138 -10 3c-6,-22 -14,-35 -25,-41 -11,-6 -26,-7 -47,-1l-266 75 -8 11c-8,11 -13,20 -14,27 -1,7 -1,17 2,29l-9 2 -39 -137zm267 -603l10 -2 25 209 -10 1 -1 -13c-2,-12 -5,-21 -10,-28 -3,-4 -8,-8 -15,-10 -5,-1 -17,-1 -37,1l-256 31c-20,3 -33,6 -38,8 -4,3 -8,8 -11,15 -3,7 -4,16 -2,27l1 13 -10 2 -25 -209 10 -1 1 13c2,12 5,21 10,27 3,5 8,9 15,11 5,1 17,1 37,-1l256 -32c20,-2 33,-5 38,-7 4,-3 8,-8 11,-15 3,-7 4,-16 3,-27l-2 -13zm-400 -436l10 0c3,14 11,27 24,38 10,8 33,20 70,35l303 128 1 10 -308 147c-37,18 -59,30 -65,36 -6,6 -10,16 -12,32l-10 0 -6 -192 10 0 1 7c0,17 3,29 7,35 3,5 8,7 13,6 4,0 8,-1 13,-2 4,-2 17,-8 38,-18l192 -92 -176 -73c-22,-9 -36,-15 -43,-16 -8,-2 -14,-3 -19,-3 -6,0 -11,2 -15,5 -4,3 -8,8 -10,14 -3,9 -4,20 -4,34l-10 1 -4 -132zm65 -250l157 29 2 -8c4,-25 0,-45 -13,-59 -13,-14 -35,-25 -64,-34l2 -11 202 37 -2 11c-23,-2 -42,0 -57,5 -15,5 -26,12 -33,21 -7,9 -12,23 -15,42l108 20c21,4 34,5 39,4 5,-1 10,-3 14,-8 4,-4 7,-12 9,-23l4 -24c7,-37 4,-68 -8,-94 -13,-25 -35,-46 -67,-62l2 -11 119 41 -63 342 -10 -2 2 -13c2,-12 2,-21 -1,-29 -1,-5 -5,-10 -11,-14 -4,-3 -16,-6 -36,-10l-254 -47c-17,-3 -28,-5 -32,-4 -7,0 -13,3 -18,8 -6,6 -11,15 -13,28l-3 13 -10 -1 62 -332 113 21 -2 12c-29,0 -50,5 -64,12 -14,8 -26,21 -35,39 -5,10 -11,30 -16,60l-8 41zm290 -379l105 35c20,6 33,9 39,9 6,-1 11,-4 17,-10 5,-5 10,-16 16,-34l10 3 -66 196 -9 -3c6,-18 8,-31 7,-38 -1,-7 -4,-13 -8,-17 -4,-5 -16,-10 -36,-17l-243 -81c-20,-7 -33,-10 -39,-9 -6,1 -12,4 -17,9 -5,6 -11,17 -17,35l-9 -4 59 -177c16,-46 30,-79 43,-98 14,-20 31,-33 52,-41 22,-8 44,-8 66,-1 27,9 47,27 58,53 7,17 9,38 7,63l157 -49c20,-7 33,-12 39,-16 8,-6 14,-14 18,-24l10 4 -40 120 -211 67 -8 25zm-182 -61l162 54 5 -16c9,-26 13,-46 13,-61 0,-14 -5,-27 -15,-39 -9,-11 -24,-20 -43,-27 -28,-9 -52,-9 -70,0 -18,9 -32,29 -42,59l-10 30zm240 -593l115 63 -6 10c-32,-11 -61,-12 -90,-2 -28,9 -49,25 -62,48 -10,17 -14,34 -11,49 3,16 11,27 23,34 7,4 15,6 23,6 11,-1 23,-4 37,-11 10,-5 31,-17 61,-39 44,-29 78,-46 103,-50 26,-4 50,0 72,13 28,16 46,42 53,76 8,35 1,70 -19,105 -6,10 -14,20 -21,29 -8,8 -19,18 -34,30 -8,6 -14,12 -17,17 -2,5 -3,10 -3,17 1,7 4,14 9,21l-5 9 -128 -74 5 -9c40,13 76,15 107,4 32,-11 54,-28 69,-53 11,-19 15,-38 11,-55 -4,-17 -12,-30 -26,-38 -7,-4 -17,-6 -27,-6 -10,0 -20,2 -32,7 -12,5 -30,16 -54,32 -34,23 -60,39 -78,46 -19,8 -37,12 -55,11 -17,0 -34,-4 -49,-13 -28,-16 -45,-40 -52,-71 -7,-31 -2,-63 16,-94 7,-11 14,-21 23,-30 7,-7 16,-15 28,-23 12,-9 20,-15 22,-20 3,-4 4,-9 2,-13 -1,-4 -6,-10 -15,-18l5 -8zm495 -31l8 6 -122 171 -8 -6 8 -11c7,-9 10,-18 11,-26 1,-6 -1,-12 -4,-18 -3,-4 -12,-12 -28,-24l-211 -150c-16,-12 -27,-18 -32,-19 -6,-1 -12,0 -19,3 -7,3 -13,9 -20,18l-8 11 -8 -6 122 -170 8 5 -8 11c-6,10 -10,18 -11,27 -1,5 1,11 5,17 2,5 11,13 28,24l210 150c16,12 27,18 33,20 5,1 11,0 18,-4 7,-3 14,-9 20,-18l8 -11zm-7 -560l76 74 -7 7c-22,-12 -40,-19 -53,-21 -13,-2 -26,0 -40,5 -8,3 -18,11 -31,25l-21 22 218 209c15,14 25,22 30,24 5,2 11,2 19,0 7,-2 15,-8 22,-16l9 -9 8 7 -145 151 -8 -7 10 -9c8,-9 13,-17 15,-25 1,-5 0,-12 -2,-18 -2,-5 -10,-14 -24,-28l-219 -209 -20 21c-19,19 -28,37 -29,54 0,23 8,46 26,69l-8 9 -76 -74 250 -261zm391 40l-110 87 10 41c4,14 8,24 14,30 6,9 15,13 25,11 7,-1 18,-7 36,-19l6 8 -105 83 -6 -8c10,-10 16,-22 17,-36 1,-13 -2,-36 -10,-68l-82 -334 4 -3 313 160c30,16 51,24 63,24 9,1 19,-2 29,-9l7 8 -153 121 -6 -8 6 -5c12,-9 20,-18 22,-25 1,-5 0,-10 -3,-15 -2,-3 -5,-5 -8,-7 -2,-1 -9,-5 -21,-12l-48 -24zm-20 -11l-131 -67 35 143 96 -76zm286 -502l68 111 -10 6c-21,-25 -47,-41 -76,-47 -30,-5 -56,-2 -78,11 -18,11 -29,23 -34,38 -5,15 -4,29 3,40 4,8 10,13 17,17 9,5 22,8 37,9 12,1 36,0 73,-3 52,-4 90,-2 114,7 25,9 43,25 56,47 17,29 19,59 9,93 -11,34 -34,61 -69,81 -11,6 -22,11 -33,15 -11,3 -26,6 -44,9 -10,1 -18,4 -23,7 -5,2 -8,7 -11,13 -3,6 -4,14 -3,22l-9 6 -75 -128 9 -5c29,31 59,50 92,57 32,6 61,2 86,-13 19,-11 31,-25 37,-42 5,-16 4,-31 -4,-45 -5,-8 -11,-14 -20,-19 -9,-5 -20,-9 -32,-10 -13,-2 -34,-1 -63,1 -40,3 -71,4 -91,1 -20,-2 -37,-8 -52,-17 -15,-9 -28,-21 -37,-37 -15,-27 -19,-56 -9,-87 9,-30 29,-55 60,-73 11,-6 23,-12 35,-15 9,-3 21,-5 36,-6 15,-1 24,-4 29,-6 4,-3 7,-6 8,-10 1,-4 0,-12 -4,-24l8 -4zm395 254l-3 -10 13 -3c11,-3 19,-8 24,-13 5,-5 9,-11 10,-18 0,-4 -2,-16 -8,-36l-69 -248c-6,-20 -10,-32 -14,-36 -3,-4 -9,-7 -16,-9 -7,-2 -16,-1 -27,2l-13 3 -3 -9 174 -49c46,-13 85,-17 117,-13 38,6 71,21 97,46 27,26 45,58 56,96 7,27 10,52 7,77 -2,25 -9,47 -18,65 -10,19 -23,35 -39,49 -15,14 -36,27 -61,39 -11,5 -29,11 -54,18l-173 49zm48 -398l82 295c4,15 8,25 10,28 3,3 6,5 10,6 6,1 14,0 24,-2 32,-9 53,-27 64,-53 15,-35 14,-82 -3,-142 -13,-49 -32,-85 -56,-110 -18,-19 -39,-30 -61,-32 -15,-2 -38,1 -70,10zm587 245l1 10 -208 25 -1 -9 13 -2c11,-1 20,-5 27,-10 5,-3 8,-8 10,-15 2,-5 1,-17 -1,-37l-31 -256c-3,-20 -5,-32 -8,-37 -3,-5 -8,-9 -15,-12 -7,-3 -16,-4 -27,-2l-13 1 -1 -10 208 -25 1 10 -13 2c-12,1 -21,4 -27,9 -5,4 -8,9 -10,16 -2,4 -2,17 1,36l31 257c2,20 5,32 8,37 3,5 7,8 14,11 7,3 17,4 28,3l13 -2zm264 -116l-141 4 -16 39c-5,13 -8,24 -8,32 1,11 6,19 15,24 5,3 18,5 39,6l1 10 -134 4 0 -10c14,-2 26,-9 35,-19 9,-9 20,-30 32,-60l134 -317 6 0 155 316c15,30 27,49 36,57 7,6 17,9 29,10l0 10 -194 6 -1 -10 8 0c16,-1 27,-3 33,-8 4,-3 6,-8 6,-14 0,-3 -1,-7 -2,-10 0,-2 -4,-9 -10,-22l-23 -48zm-10 -21l-65 -132 -57 136 122 -4zm422 -230l151 275 30 -165c4,-24 4,-40 -1,-49 -8,-13 -22,-22 -44,-25l1 -10 131 24 -2 10c-17,-1 -28,0 -35,2 -6,2 -12,7 -16,14 -5,7 -9,19 -12,38l-60 320 -9 -1 -209 -371 -45 246c-4,22 -2,38 7,48 9,10 21,16 34,18l9 2 -1 10 -141 -26 1 -10c22,4 38,2 49,-5 10,-7 17,-21 20,-41l51 -273 -7 -11c-6,-12 -12,-21 -18,-25 -6,-5 -15,-8 -27,-11l2 -10 141 26zm658 181l82 302 69 -153c10,-22 13,-38 10,-48 -4,-15 -16,-26 -37,-35l4 -9 122 54 -5 10c-16,-5 -28,-8 -34,-7 -7,1 -13,4 -20,10 -6,5 -13,17 -20,34l-133 298 -10 -5 -114 -409 -102 228c-10,21 -11,37 -5,49 7,11 16,20 29,25l8 4 -4 10 -131 -59 4 -9c21,9 37,11 48,6 12,-4 22,-16 31,-35l113 -253 -4 -12c-3,-14 -7,-23 -12,-29 -4,-5 -12,-11 -23,-16l4 -10 130 59zm328 155l174 113 -5 8 -9 -6c-13,-8 -23,-13 -30,-13 -6,-1 -12,1 -17,4 -5,3 -14,15 -26,34l-105 160c-19,30 -29,51 -31,63 -1,13 1,25 7,39 7,13 18,24 34,35 18,12 36,18 54,18 18,0 35,-5 51,-14 15,-10 34,-33 57,-68l87 -134c9,-14 15,-26 15,-34 1,-9 0,-16 -3,-21 -5,-9 -14,-18 -28,-27l5 -8 117 76 -5 8 -7 -4c-10,-7 -19,-10 -27,-10 -9,0 -17,2 -25,8 -5,4 -13,12 -21,26l-81 125c-25,38 -46,64 -62,78 -17,14 -40,22 -69,23 -30,1 -62,-10 -97,-32 -29,-19 -49,-38 -60,-56 -15,-24 -22,-47 -21,-69 2,-22 12,-47 29,-74l104 -161c13,-19 19,-32 20,-38 1,-6 0,-12 -4,-18 -3,-6 -12,-14 -27,-23l6 -8zm625 472l-88 97 -9 -9c19,-27 27,-56 24,-86 -2,-30 -13,-54 -32,-72 -14,-14 -30,-22 -45,-22 -16,-1 -29,4 -38,14 -6,6 -10,13 -12,21 -2,10 -1,23 2,38 2,11 10,34 23,69 18,49 27,87 25,112 -2,26 -12,48 -30,67 -23,23 -52,35 -87,33 -35,-1 -67,-15 -97,-43 -9,-9 -17,-18 -23,-28 -6,-9 -13,-23 -21,-39 -4,-10 -8,-17 -13,-21 -4,-3 -9,-6 -16,-7 -7,-1 -14,0 -22,3l-8 -7 103 -107 7 8c-22,36 -32,70 -29,103 3,33 14,59 35,79 16,16 33,24 51,24 17,1 32,-4 42,-16 7,-6 11,-15 13,-24 3,-10 3,-21 1,-34 -2,-13 -8,-33 -19,-60 -14,-38 -23,-67 -26,-87 -3,-20 -2,-38 2,-55 5,-17 13,-32 26,-45 21,-23 48,-34 81,-33 32,0 61,13 87,37 9,10 17,19 24,30 5,8 10,19 16,33 5,14 10,22 13,26 4,3 8,5 12,5 5,0 12,-4 22,-10l6 6zm446 553l-8 7c-5,-6 -11,-10 -16,-12 -7,-1 -14,-2 -22,0 -2,0 -18,5 -47,13l-331 101 -7 -9 138 -236 -268 71 -7 -8 169 -302c17,-31 27,-50 29,-59 2,-8 0,-18 -7,-28l8 -7 108 137 -8 7c-9,-11 -17,-17 -23,-18 -5,-2 -11,-1 -15,3 -6,4 -15,18 -28,40l-100 180 157 -43 22 -37c12,-22 20,-37 23,-45 3,-9 4,-17 2,-24 -1,-7 -6,-15 -14,-25l8 -6 120 152 -8 6c-8,-11 -15,-18 -21,-21 -3,-3 -7,-4 -11,-3 -4,0 -7,1 -11,4 -3,2 -11,14 -24,35l-100 173 172 -53c18,-5 30,-9 36,-12 6,-2 11,-6 16,-9 6,-5 9,-11 9,-18 0,-7 -4,-17 -14,-30l8 -6 65 82zm-145 384l-58 -129 -42 0c-14,0 -25,2 -33,6 -10,4 -16,12 -17,22 0,6 3,19 10,39l-9 4 -55 -122 9 -4c8,12 18,21 31,25 12,5 35,7 68,7l344 2 2 6 -232 264c-22,25 -35,44 -39,55 -3,9 -2,19 2,31l-9 4 -80 -178 9 -4 3 7c7,15 13,24 20,28 4,2 9,3 15,0 3,-1 6,-3 9,-6 1,-1 7,-7 16,-17l36 -40zm15 -18l97 -109 -147 -1 50 110zm380 273l-180 257 162 -45c23,-7 37,-14 44,-23 8,-13 9,-29 2,-51l10 -3 36 129 -10 2c-6,-16 -12,-26 -17,-31 -5,-4 -11,-7 -20,-8 -8,-1 -21,1 -39,6l-314 88 -3 -10 241 -350 -240 67c-22,7 -35,16 -40,28 -5,13 -5,25 -2,39l3 9 -10 2 -39 -138 10 -2c6,21 15,35 26,41 10,6 26,6 46,0l267 -74 7 -11c8,-11 13,-20 14,-28 2,-7 1,-16 -2,-28l10 -3 38 137zm120 738l-105 8 -1 -11c24,-8 41,-16 51,-25 10,-8 18,-19 23,-33 3,-8 4,-21 2,-40l-2 -30 -302 22c-20,2 -32,4 -37,7 -5,2 -9,7 -12,14 -4,7 -5,16 -4,27l1 13 -10 1 -16 -209 10 -1 1 13c1,12 4,21 8,28 3,5 8,8 15,11 5,1 17,2 37,0l302 -23 -3 -29c-2,-27 -9,-46 -21,-57 -17,-16 -40,-25 -69,-28l-1 -11 106 -8 27 361zm-7 305c-2,64 -24,114 -66,151 -41,38 -91,54 -149,49 -49,-3 -92,-22 -127,-54 -47,-44 -68,-101 -62,-173 5,-73 33,-127 84,-163 40,-28 86,-40 137,-36 58,4 105,28 140,72 36,43 50,95 43,154zm-18 2c3,-37 -13,-66 -48,-88 -29,-18 -71,-29 -127,-34 -67,-5 -117,4 -151,25 -23,15 -36,38 -38,68 -2,21 2,38 10,53 11,18 30,33 56,45 26,12 61,19 104,22 52,4 91,2 117,-6 26,-8 45,-19 57,-33 12,-15 18,-32 20,-52zm-269 411l-106 -30c-21,-6 -34,-8 -40,-7 -6,1 -11,4 -16,10 -5,5 -10,17 -15,35l-10 -3 57 -198 9 3c-5,17 -7,30 -5,37 1,8 4,13 8,17 5,4 17,9 38,15l246 71c20,6 33,8 39,7 6,-1 12,-4 17,-10 5,-6 10,-17 15,-35l9 3 -51 180c-14,47 -27,80 -39,100 -13,20 -29,34 -50,43 -21,9 -43,10 -66,3 -28,-8 -48,-25 -60,-50 -8,-17 -11,-38 -10,-63l-154 56c-20,8 -33,14 -38,18 -8,6 -14,14 -18,24l-10 -3 35 -122 208 -75 7 -26zm184 53l-164 -47 -5 16c-8,27 -11,47 -10,62 1,14 7,27 17,38 10,11 25,19 44,25 29,8 52,7 70,-3 17,-9 30,-30 39,-60l9 -31zm-177 557c-27,58 -66,96 -119,115 -53,18 -105,14 -157,-12 -44,-22 -76,-55 -96,-99 -27,-58 -24,-119 9,-184 32,-64 79,-104 139,-117 48,-11 95,-5 141,18 52,26 86,66 102,120 16,54 10,107 -19,159zm-18 -5c17,-33 13,-67 -11,-100 -19,-28 -54,-54 -104,-80 -60,-30 -109,-41 -149,-34 -27,5 -48,21 -61,48 -10,19 -13,36 -11,53 3,21 15,42 35,63 19,21 48,41 87,60 46,24 83,37 110,39 28,3 50,0 66,-9 16,-9 29,-22 38,-40z"/>
   <path class="fil2" d="M1351 4852l-70 94 -8 -6c14,-26 18,-53 14,-79 -5,-26 -17,-46 -35,-60 -14,-11 -28,-15 -42,-14 -14,1 -24,7 -32,16 -5,6 -7,13 -8,20 -1,10 0,21 4,34 4,9 12,29 27,58 20,41 31,73 31,96 1,23 -6,44 -20,62 -18,24 -43,37 -74,40 -31,3 -60,-7 -88,-28 -9,-7 -17,-14 -23,-22 -7,-8 -14,-18 -22,-33 -5,-7 -9,-13 -13,-16 -4,-3 -9,-4 -15,-5 -6,0 -12,2 -19,6l-7 -6 80 -105 7 5c-16,34 -22,66 -17,95 6,29 19,51 38,66 16,12 31,17 47,15 16,-1 28,-7 36,-18 5,-7 8,-15 9,-24 2,-8 1,-18 -2,-29 -3,-11 -10,-28 -21,-51 -16,-32 -26,-57 -31,-74 -4,-17 -5,-34 -3,-49 2,-16 9,-30 19,-43 17,-22 39,-35 68,-38 28,-3 55,5 80,24 9,7 17,14 23,23 6,7 11,16 17,27 6,12 11,19 15,22 3,3 7,4 10,3 4,-1 10,-4 18,-11l7 5zm238 192l-72 124 6 4c20,11 37,13 53,6 16,-7 32,-22 48,-44l8 5 -92 160 -9 -5c8,-19 13,-35 14,-50 0,-14 -2,-25 -8,-34 -5,-8 -15,-16 -30,-25l-49 86c-10,17 -15,27 -16,32 -1,4 0,9 3,14 2,4 8,9 16,14l19 11c28,16 55,23 79,20 25,-3 49,-16 72,-39l9 5 -70 89 -263 -153 4 -8 10 6c9,5 17,8 24,8 5,0 11,-2 16,-6 3,-3 10,-12 19,-27l116 -201c8,-14 13,-22 14,-26 2,-6 1,-12 -1,-17 -3,-8 -10,-14 -20,-20l-10 -6 5 -8 254 148 -52 90 -9 -5c9,-24 12,-44 9,-58 -2,-14 -9,-27 -20,-40 -7,-8 -22,-18 -45,-31l-32 -19zm442 426l169 -186 134 48 -3 8 -11 -4c-9,-3 -18,-4 -25,-3 -5,1 -9,4 -14,8 -3,4 -8,14 -14,30l-78 219c-6,17 -9,28 -9,33 1,5 3,10 7,15 5,5 12,10 21,13l11 4 -4 8 -172 -61 3 -9 11 4c9,3 18,4 25,3 5,-1 9,-4 14,-8 3,-4 8,-14 14,-30l87 -246 -235 257 -6 -2 -22 -347 -83 234c-6,16 -9,26 -10,31 -1,8 2,17 7,24 5,8 15,15 31,20l-3 9 -114 -41 3 -8 3 1c8,3 15,4 22,4 8,-1 14,-2 18,-6 5,-3 10,-8 14,-15 1,-2 5,-10 10,-25l75 -209c6,-18 9,-29 9,-33 -1,-5 -3,-10 -7,-16 -5,-5 -12,-9 -21,-12l-10 -4 3 -9 135 49 15 252zm582 132l-122 -9 -18 33c-6,11 -9,20 -10,28 0,10 3,17 10,23 5,3 16,6 34,9l0 9 -117 -9 1 -9c12,-1 23,-6 32,-14 9,-8 20,-25 34,-51l147 -270 5 0 104 297c10,29 19,47 26,55 6,6 14,9 24,11l0 9 -170 -13 1 -9 7 1c13,1 23,-1 29,-4 4,-2 6,-6 6,-12 1,-3 0,-6 0,-9 -1,-2 -3,-9 -7,-21l-16 -45zm-6 -20l-44 -123 -62 115 106 8zm450 -38l7 99c2,19 4,31 6,35 3,5 8,9 14,11 6,3 17,3 33,2l1 9 -180 14 -1 -9c17,-1 27,-4 33,-7 6,-4 9,-8 11,-13 2,-5 3,-17 1,-36l-17 -229c-2,-19 -4,-31 -7,-36 -2,-4 -7,-8 -13,-10 -6,-3 -17,-4 -33,-2l-1 -9 163 -13c43,-3 74,-3 94,2 20,4 37,14 51,29 14,15 21,33 23,54 2,26 -6,48 -23,66 -11,12 -27,21 -49,28l94 113c12,14 21,23 26,27 7,4 16,7 25,7l1 9 -111 9 -125 -152 -23 2zm-13 -172l11 153 15 -1c24,-2 42,-5 53,-10 12,-6 21,-14 27,-26 6,-12 8,-27 7,-46 -2,-26 -10,-46 -24,-57 -13,-12 -34,-17 -62,-15l-27 2zm609 122l-119 33 -6 37c-1,13 -1,23 1,30 3,10 8,16 17,18 5,1 17,0 35,-3l3 9 -113 31 -3 -9c12,-5 21,-13 26,-24 6,-10 11,-30 15,-59l46 -304 5 -2 199 245c19,23 34,37 43,42 7,4 16,5 27,3l2 8 -164 46 -3 -9 7 -2c13,-4 22,-8 26,-13 3,-4 4,-8 3,-13 -1,-3 -2,-6 -4,-9 -1,-2 -5,-7 -13,-17l-30 -38zm-13 -16l-83 -102 -20 130 103 -28zm307 -372l251 120 -66 -136c-10,-19 -19,-31 -27,-35 -12,-6 -27,-4 -44,5l-4 -8 104 -51 4 8c-12,8 -20,15 -24,20 -3,5 -4,11 -4,19 1,7 5,18 12,33l128 264 -7 4 -343 -160 99 202c9,18 19,29 30,31 12,2 23,1 34,-4l7 -4 4 8 -113 55 -4 -8c18,-9 28,-18 32,-29 3,-10 1,-24 -8,-41l-109 -224 -10 -5c-11,-5 -20,-8 -26,-8 -7,0 -15,2 -25,6l-4 -8 113 -54zm578 -394l76 98 -7 5c-30,-19 -59,-28 -88,-28 -29,1 -55,10 -76,27 -21,16 -34,36 -38,58 -5,23 -2,46 9,72 10,25 24,48 42,70 21,27 42,47 64,62 22,15 44,22 65,21 21,-2 41,-10 60,-25 7,-6 13,-12 19,-19 6,-7 12,-14 17,-23l-45 -57c-9,-11 -16,-18 -20,-20 -4,-2 -9,-2 -16,-1 -6,1 -13,4 -20,9l-7 6 -5 -7 134 -106 5 7c-9,8 -15,16 -18,21 -2,5 -2,11 0,18 0,3 5,10 13,21l45 57c-11,22 -25,42 -41,61 -16,19 -34,37 -55,53 -26,20 -50,34 -73,41 -23,6 -46,9 -68,8 -23,-2 -43,-6 -62,-15 -24,-11 -46,-28 -64,-52 -33,-41 -46,-88 -39,-139 6,-52 32,-96 76,-130 14,-11 27,-20 40,-27 7,-3 19,-8 36,-13 17,-6 27,-10 30,-11 4,-3 6,-8 7,-13 1,-5 0,-13 -3,-23l7 -6z"/>
   <path class="fil3" d="M685 4299c95,0 173,77 173,173 0,95 -78,172 -173,172 -95,0 -173,-77 -173,-172 0,-96 78,-173 173,-173zm4314 0c95,0 173,77 173,173 0,95 -78,172 -173,172 -96,0 -173,-77 -173,-172 0,-96 77,-173 173,-173z"/>
   <path class="fil2" d="M1504 3699l253 0 0 10 -13 0c-19,0 -32,1 -39,4 -8,3 -13,7 -16,13 -3,5 -4,18 -4,40l0 181c0,33 3,55 10,66 6,11 17,20 32,27 16,7 35,10 58,10 26,0 49,-4 68,-13 18,-9 32,-22 41,-37 10,-16 14,-44 14,-83l0 -151c0,-17 -2,-29 -7,-36 -4,-7 -10,-12 -17,-15 -11,-4 -26,-6 -46,-6l0 -10 169 0 0 10 -10 0c-13,0 -25,2 -34,6 -9,4 -16,10 -20,19 -3,6 -4,16 -4,32l0 140c0,44 -4,75 -12,95 -7,19 -26,37 -55,53 -30,16 -69,24 -120,24 -43,0 -75,-4 -98,-13 -32,-11 -54,-26 -67,-44 -13,-19 -20,-43 -20,-74l0 -181c0,-22 -1,-35 -4,-40 -4,-6 -9,-10 -17,-13 -7,-3 -22,-5 -42,-4l0 -10zm526 371l0 -10 17 0c14,0 25,-1 32,-5 8,-3 13,-8 17,-14 2,-3 3,-15 3,-34l0 -245c0,-19 -1,-31 -4,-35 -2,-5 -8,-9 -16,-13 -8,-4 -19,-5 -32,-5l-17 0 0 -10 220 0c58,0 105,6 141,18 43,15 76,37 99,67 22,30 34,64 34,102 0,26 -6,50 -17,72 -11,22 -25,40 -43,54 -17,14 -38,26 -61,35 -23,8 -51,15 -84,20 -15,2 -38,3 -69,3l-220 0zm187 -350l0 289c0,15 1,25 3,28 2,4 5,6 9,8 7,3 16,4 29,4 40,0 71,-10 92,-31 29,-28 44,-72 44,-131 0,-47 -10,-85 -30,-114 -16,-22 -36,-37 -61,-45 -17,-6 -46,-8 -86,-8zm608 340l0 10 -255 0 0 -10 16 0c14,0 25,-2 34,-5 6,-3 11,-7 15,-14 2,-4 3,-16 3,-34l0 -245c0,-19 -1,-31 -3,-35 -3,-5 -8,-9 -17,-13 -8,-4 -18,-5 -32,-5l-16 0 0 -10 255 0 0 10 -16 0c-14,0 -26,2 -34,5 -6,3 -11,7 -15,14 -3,4 -4,16 -4,34l0 245c0,19 1,31 4,36 3,4 8,8 16,12 8,4 19,5 33,5l16 0zm201 -361l242 230 0 -159c0,-23 -4,-38 -13,-46 -11,-11 -31,-16 -58,-15l0 -10 162 0 0 10c-21,2 -35,4 -42,7 -7,4 -12,9 -16,16 -4,7 -6,20 -6,38l0 308 -13 0 -331 -309 0 237c0,21 7,36 20,43 13,8 28,11 44,11l12 0 0 10 -175 0 0 -10c27,0 46,-4 57,-12 10,-9 16,-23 16,-42l0 -263 -10 -9c-11,-10 -20,-17 -28,-20 -8,-3 -19,-5 -34,-5l0 -10 173 0zm368 0l253 0 0 10 -13 0c-19,0 -32,1 -39,4 -7,3 -12,7 -15,13 -4,5 -5,18 -5,40l0 181c0,33 3,55 10,66 7,11 17,20 33,27 15,7 34,10 57,10 26,0 49,-4 68,-13 18,-9 32,-22 41,-37 10,-16 14,-44 14,-83l0 -151c0,-17 -2,-29 -7,-36 -4,-7 -10,-12 -17,-15 -11,-4 -26,-6 -46,-6l0 -10 169 0 0 10 -10 0c-13,0 -25,2 -34,6 -9,4 -16,10 -20,19 -3,6 -4,16 -4,32l0 140c0,44 -4,75 -12,95 -7,19 -26,37 -55,53 -29,16 -69,24 -120,24 -43,0 -75,-4 -98,-13 -32,-11 -54,-26 -67,-44 -13,-19 -20,-43 -20,-74l0 -181c0,-22 -1,-35 -4,-40 -3,-6 -9,-10 -17,-13 -7,-3 -21,-5 -42,-4l0 -10zm864 -8l4 123 -15 0c-7,-31 -24,-56 -51,-74 -28,-19 -57,-29 -89,-29 -25,0 -44,5 -58,15 -15,10 -22,22 -22,35 0,8 3,15 8,21 7,9 18,17 33,26 12,6 38,16 79,32 57,21 96,41 116,60 20,19 30,41 30,65 0,31 -17,58 -48,80 -32,22 -73,33 -122,33 -16,0 -30,-1 -44,-3 -14,-3 -31,-7 -52,-14 -11,-3 -21,-5 -28,-5 -7,0 -13,2 -20,5 -7,4 -13,10 -17,17l-13 0 0 -139 13 0c11,39 31,69 61,89 30,21 63,31 98,31 27,0 49,-5 65,-16 16,-11 24,-24 24,-39 0,-9 -3,-17 -10,-25 -6,-9 -15,-16 -28,-24 -12,-7 -34,-17 -66,-29 -45,-16 -77,-30 -96,-42 -20,-12 -35,-25 -45,-39 -10,-15 -16,-30 -16,-48 0,-29 15,-54 43,-75 29,-21 65,-31 109,-31 16,0 31,1 46,4 11,2 25,6 41,12 17,6 28,9 34,9 7,0 12,-2 15,-4 4,-3 7,-10 10,-21l11 0z"/>
  </g>
 </g>
</svg>
